<svg width="20" height="20" viewBox="0 0 20 20" fill="none" xmlns="http://www.w3.org/2000/svg">
<path fill-rule="evenodd" clip-rule="evenodd" d="M12.1057 7.59912H9.56158C8.99242 7.59912 8.59075 7.04162 8.77075 6.50245V6.50245C9.04992 5.66412 9.83408 5.09912 10.7174 5.09912H10.9491C11.8324 5.09912 12.6166 5.66412 12.8957 6.50245V6.50245C13.0757 7.04162 12.6741 7.59912 12.1057 7.59912V7.59912Z" stroke="#91969F" stroke-width="1.5" stroke-linecap="round" stroke-linejoin="round"/>
<path d="M5.82772 11.0513H3.33355C2.82189 11.0513 2.43105 11.5079 2.51022 12.0129L2.79689 13.8463C3.05022 15.4696 4.44772 16.6654 6.09022 16.6654H13.9102C15.5527 16.6654 16.9502 15.4696 17.2036 13.8471L17.4902 12.0138C17.5694 11.5088 17.1786 11.0521 16.6669 11.0521H10.2194" stroke="#91969F" stroke-width="1.5" stroke-linecap="round" stroke-linejoin="round"/>
<path d="M10.8333 5.1V5C10.8333 3.61917 11.9524 2.5 13.3333 2.5V2.5C14.7141 2.5 15.8333 3.61917 15.8333 5V11.0525" stroke="#91969F" stroke-width="1.5" stroke-linecap="round" stroke-linejoin="round"/>
<path fill-rule="evenodd" clip-rule="evenodd" d="M8.46492 14.3858H7.58742C6.61909 14.3858 5.83325 13.6008 5.83325 12.6317V10.9608C5.83325 10.43 6.26325 10 6.79409 10H9.25825C9.78909 10 10.2191 10.43 10.2191 10.9608V12.6317C10.2191 13.6008 9.43409 14.3858 8.46492 14.3858Z" stroke="#91969F" stroke-width="1.5" stroke-linecap="round" stroke-linejoin="round"/>
<path d="M5.03341 16.5005L4.16675 17.5005" stroke="#91969F" stroke-width="1.5" stroke-linecap="round" stroke-linejoin="round"/>
<path d="M15.8332 17.5005L14.9666 16.5005" stroke="#91969F" stroke-width="1.5" stroke-linecap="round" stroke-linejoin="round"/>
</svg>
