<svg width="18" height="18" viewBox="0 0 18 18" fill="none" xmlns="http://www.w3.org/2000/svg">
<path fill-rule="evenodd" clip-rule="evenodd" d="M13.5019 14.6274H10.5007V15.0026C10.5007 15.4169 10.1648 15.7529 9.75038 15.7529H9.00007C8.58568 15.7529 8.24976 15.4169 8.24976 15.0026V13.6895C8.24976 12.9643 8.83763 12.3765 9.5628 12.3765H14.4398C15.165 12.3765 15.7529 12.9643 15.7529 13.6895V15.0026C15.7529 15.4169 15.417 15.7529 15.0026 15.7529H14.2523C13.8379 15.7529 13.5019 15.4169 13.5019 15.0026V14.6274Z" stroke="#91969F" stroke-width="1.5" stroke-linecap="round" stroke-linejoin="round"/>
<path d="M9.10474 12.4639L9.53609 10.6201C9.65518 10.111 10.1092 9.75098 10.632 9.75098H13.371C13.8938 9.75098 14.3478 10.111 14.4669 10.6201L14.8982 12.4639" stroke="#91969F" stroke-width="1.5" stroke-linecap="round" stroke-linejoin="round"/>
<path d="M9.17949 12.0931L8.24976 11.626" stroke="#91969F" stroke-width="1.5" stroke-linecap="round" stroke-linejoin="round"/>
<path d="M14.8232 12.0931L15.753 11.626" stroke="#91969F" stroke-width="1.5" stroke-linecap="round" stroke-linejoin="round"/>
<path d="M5.99894 5.24854V8.62494" stroke="#91969F" stroke-width="1.5" stroke-linecap="round" stroke-linejoin="round"/>
<path d="M5.99878 5.24854H7.18052C7.46409 5.24854 7.73604 5.36118 7.93656 5.5617C8.13707 5.76221 8.24972 6.03416 8.24972 6.31773V6.31773C8.24972 6.90823 7.77102 7.38693 7.18052 7.38693H5.99878" stroke="#91969F" stroke-width="1.5" stroke-linecap="round" stroke-linejoin="round"/>
<path d="M12.0014 6.7669C12.0032 5.36993 11.4499 4.02949 10.4631 3.04062H10.4631L10.4456 3.02303C8.38119 0.986023 5.05769 1.0038 3.01523 3.06278C0.972773 5.12177 0.981773 8.4453 3.03535 10.4932L5.28648 12.7518" stroke="#91969F" stroke-width="1.5" stroke-linecap="round" stroke-linejoin="round"/>
</svg>
