<svg width="20" height="20" viewBox="0 0 20 20" fill="none" xmlns="http://www.w3.org/2000/svg">
<path fill-rule="evenodd" clip-rule="evenodd" d="M17.5 8.64384V4.98718C17.5 4.36134 17.0367 3.83218 16.4167 3.74801L7.43417 2.53968C4.8225 2.18801 2.5 4.21884 2.5 6.85384V6.85384C2.5 9.50384 4.8475 11.5388 7.47083 11.163L16.4275 9.88051C17.0425 9.79301 17.5 9.26551 17.5 8.64384Z" stroke="#91969F" stroke-width="1.5" stroke-linecap="round" stroke-linejoin="round"/>
<path d="M8.20242 5.78016C8.77193 6.34968 8.77193 7.27305 8.20242 7.84256C7.6329 8.41207 6.70954 8.41207 6.14003 7.84256C5.57051 7.27304 5.57051 6.34967 6.14003 5.78016C6.70954 5.21065 7.63291 5.21065 8.20242 5.78016" stroke="#91969F" stroke-width="1.5" stroke-linecap="round" stroke-linejoin="round"/>
<path d="M14.7917 3.59033V10.0237" stroke="#91969F" stroke-width="1.5" stroke-linecap="round" stroke-linejoin="round"/>
<path d="M5.83496 11.0833C6.04079 12.5258 6.31913 14.4699 6.51413 15.8391C6.65079 16.7941 7.46829 17.5008 8.43329 17.5008V17.5008C9.61246 17.5008 10.5191 16.4591 10.3525 15.2916C10.1466 13.8483 9.93246 12.3508 9.71663 10.8433" stroke="#91969F" stroke-width="1.5" stroke-linecap="round" stroke-linejoin="round"/>
</svg>
