<svg width="20" height="20" viewBox="0 0 20 20" fill="none" xmlns="http://www.w3.org/2000/svg">
<path d="M4.1644 15.835V16.6686" stroke="#91969F" stroke-width="1.5" stroke-linecap="round" stroke-linejoin="round"/>
<path d="M15.8358 15.835V16.6686" stroke="#91969F" stroke-width="1.5" stroke-linecap="round" stroke-linejoin="round"/>
<path fill-rule="evenodd" clip-rule="evenodd" d="M3.33069 3.33008H16.6696C17.5904 3.33008 18.3369 4.07658 18.3369 4.99744V14.1679C18.3369 15.0888 17.5904 15.8353 16.6696 15.8353H3.33069C2.40983 15.8353 1.66333 15.0888 1.66333 14.1679V4.99744C1.66333 4.07658 2.40983 3.33008 3.33069 3.33008Z" stroke="#91969F" stroke-width="1.5" stroke-linecap="round" stroke-linejoin="round"/>
<path d="M14.1682 6.66538H15.8356" stroke="#91969F" stroke-width="1.5" stroke-linecap="round" stroke-linejoin="round"/>
<path d="M8.74921 10.6405C8.30467 10.4171 7.79555 10.3579 7.31164 10.4733L6.01838 10.7771C5.53453 10.8928 5.02534 10.8337 4.58081 10.6103" stroke="#91969F" stroke-width="1.5" stroke-linecap="round" stroke-linejoin="round"/>
<path d="M8.74921 8.17796C8.29237 7.99809 7.79382 7.95173 7.31164 8.04428L6.01838 8.28726C5.53624 8.38004 5.03765 8.33377 4.58081 8.15386" stroke="#91969F" stroke-width="1.5" stroke-linecap="round" stroke-linejoin="round"/>
<path d="M11.6676 3.33008L11.6676 15.8353" stroke="#91969F" stroke-width="1.5" stroke-linecap="round" stroke-linejoin="round"/>
</svg>
