<svg width="18" height="18" viewBox="0 0 18 18" fill="none" xmlns="http://www.w3.org/2000/svg">
<path d="M9.75 3.18206C10.9928 1.93931 13.0072 1.93931 14.25 3.18206" stroke="#91969F" stroke-width="1.5" stroke-linecap="round" stroke-linejoin="round"/>
<path d="M10.875 4.68209C11.496 4.06109 12.504 4.06109 13.125 4.68209" stroke="#91969F" stroke-width="1.5" stroke-linecap="round" stroke-linejoin="round"/>
<path d="M9.75 12.75H5.25" stroke="#91969F" stroke-width="1.5" stroke-linecap="round" stroke-linejoin="round"/>
<path d="M11.9739 12.7761C11.9589 12.7611 11.9589 12.7379 11.9739 12.7229C11.9889 12.7079 12.0121 12.7079 12.0271 12.7229C12.0421 12.7379 12.0421 12.7611 12.0271 12.7761C12.0121 12.7911 11.9881 12.7911 11.9739 12.7761" stroke="#91969F" stroke-width="1.5" stroke-linecap="round" stroke-linejoin="round"/>
<path d="M12 9.75V6.75" stroke="#91969F" stroke-width="1.5" stroke-linecap="round" stroke-linejoin="round"/>
<path fill-rule="evenodd" clip-rule="evenodd" d="M3.75 9.75H14.25C15.0788 9.75 15.75 10.4212 15.75 11.25V14.25C15.75 15.0788 15.0788 15.75 14.25 15.75H3.75C2.92125 15.75 2.25 15.0788 2.25 14.25V11.25C2.25 10.4212 2.92125 9.75 3.75 9.75Z" stroke="#91969F" stroke-width="1.5" stroke-linecap="round" stroke-linejoin="round"/>
</svg>
