<svg width="18" height="18" viewBox="0 0 18 18" fill="none" xmlns="http://www.w3.org/2000/svg">
<path d="M10.8562 6.39385C11.8813 7.41898 11.8813 9.08103 10.8562 10.1062C9.83103 11.1313 8.16898 11.1313 7.14385 10.1062C6.11872 9.08103 6.11872 7.41898 7.14385 6.39385C8.16898 5.36872 9.83103 5.36872 10.8562 6.39385" stroke="#91969F" stroke-width="1.5" stroke-linecap="round" stroke-linejoin="round"/>
<path fill-rule="evenodd" clip-rule="evenodd" d="M2.25 3.7995V12.7013C2.25 13.5563 2.94375 14.25 3.7995 14.25H14.2013C15.0563 14.25 15.75 13.5563 15.75 12.7005V3.7995C15.75 2.94375 15.0563 2.25 14.2005 2.25H3.7995C2.94375 2.25 2.25 2.94375 2.25 3.7995Z" stroke="#91969F" stroke-width="1.5" stroke-linecap="round" stroke-linejoin="round"/>
<path d="M8.51245 8.7751L9.48745 7.7251" stroke="#91969F" stroke-width="1.5" stroke-linecap="round" stroke-linejoin="round"/>
<path d="M3.75 15.75V14.25" stroke="#91969F" stroke-width="1.5" stroke-linecap="round" stroke-linejoin="round"/>
<path d="M14.25 15.75V14.25" stroke="#91969F" stroke-width="1.5" stroke-linecap="round" stroke-linejoin="round"/>
<path d="M15.75 4.5H16.5" stroke="#91969F" stroke-width="1.5" stroke-linecap="round" stroke-linejoin="round"/>
<path d="M15.75 11.25H16.5" stroke="#91969F" stroke-width="1.5" stroke-linecap="round" stroke-linejoin="round"/>
</svg>
