<svg width="18" height="18" viewBox="0 0 18 18" fill="none" xmlns="http://www.w3.org/2000/svg">
<path d="M11.25 9H3.375C2.75368 9 2.25 8.49632 2.25 7.875V7.875C2.25 7.25368 2.75368 6.75 3.375 6.75H11.25" stroke="#91969F" stroke-width="1.5" stroke-linecap="round" stroke-linejoin="round"/>
<path fill-rule="evenodd" clip-rule="evenodd" d="M12 1.5H15C15.4142 1.5 15.75 1.83579 15.75 2.25V8.25C15.75 8.66421 15.4142 9 15 9H11.25V2.25C11.25 1.83579 11.5858 1.5 12 1.5Z" stroke="#91969F" stroke-width="1.5" stroke-linecap="round" stroke-linejoin="round"/>
<path d="M15.75 8.25V8.8783C15.75 10.2947 14.8437 11.5521 13.5 12V15C13.5 15.4142 13.1642 15.75 12.75 15.75H6.96058C6.72963 15.75 6.51156 15.6436 6.36943 15.4616C6.22729 15.2795 6.17696 15.0422 6.23297 14.8181L6.75 12.75L6.66043 12.7276C4.94995 12.3 3.75 10.7631 3.75 9" stroke="#91969F" stroke-width="1.5" stroke-linecap="round" stroke-linejoin="round"/>
</svg>
