<svg width="20" height="20" viewBox="0 0 20 20" fill="none" xmlns="http://www.w3.org/2000/svg">
<path d="M5.41675 4.16667H7.91675" stroke="#91969F" stroke-width="1.5" stroke-linecap="round" stroke-linejoin="round"/>
<path d="M5.41675 4.1665V2.49984C5.41675 2.0396 5.78984 1.6665 6.25008 1.6665H7.08341C7.54365 1.6665 7.91675 2.0396 7.91675 2.49984V4.1665" stroke="#91969F" stroke-width="1.5" stroke-linecap="round" stroke-linejoin="round"/>
<path d="M9.99992 11.6665V14.9998H3.33325V11.6665" stroke="#91969F" stroke-width="1.5" stroke-linecap="round" stroke-linejoin="round"/>
<path d="M3.33325 11.6665C3.33309 10.345 3.69323 9.04856 4.37492 7.9165V7.9165C5.05643 6.78438 5.41656 5.48793 5.41659 4.1665" stroke="#91969F" stroke-width="1.5" stroke-linecap="round" stroke-linejoin="round"/>
<path d="M7.91675 4.1665C7.91659 5.48796 8.27673 6.78445 8.95841 7.9165V7.9165C9.63993 9.04863 10.0001 10.3451 10.0001 11.6665" stroke="#91969F" stroke-width="1.5" stroke-linecap="round" stroke-linejoin="round"/>
<path fill-rule="evenodd" clip-rule="evenodd" d="M14.9998 11.2702V11.2702C15.706 11.2702 16.3793 10.9714 16.8532 10.4478C17.3271 9.92411 17.5574 9.22443 17.4871 8.52168L17.3845 7.49562C17.3374 7.02494 16.9414 6.6665 16.4683 6.6665H13.5312C13.0582 6.6665 12.6621 7.02494 12.615 7.49562L12.5124 8.52168C12.4421 9.22443 12.6724 9.92411 13.1463 10.4478C13.6202 10.9714 14.2935 11.2702 14.9998 11.2702Z" stroke="#91969F" stroke-width="1.5" stroke-linecap="round" stroke-linejoin="round"/>
<path d="M14.9999 11.2695V14.9992" stroke="#91969F" stroke-width="1.5" stroke-linecap="round" stroke-linejoin="round"/>
<path fill-rule="evenodd" clip-rule="evenodd" d="M16.6667 17.5H3.33341C2.41294 17.5 1.66675 16.7538 1.66675 15.8333V15.8333C1.66675 15.3731 2.03984 15 2.50008 15H17.5001C17.9603 15 18.3334 15.3731 18.3334 15.8333V15.8333C18.3334 16.7538 17.5872 17.5 16.6667 17.5Z" stroke="#91969F" stroke-width="1.5" stroke-linecap="round" stroke-linejoin="round"/>
<path d="M9.69484 9.58317H3.63843" stroke="#91969F" stroke-width="1.5" stroke-linecap="round" stroke-linejoin="round"/>
</svg>
